<?xml version="1.0" encoding="utf-8"?>
<!-- Generator: Adobe Illustrator 26.0.1, SVG Export Plug-In . SVG Version: 6.00 Build 0)  -->
<svg version="1.1" id="Layer_1" xmlns="http://www.w3.org/2000/svg" xmlns:xlink="http://www.w3.org/1999/xlink" x="0px" y="0px"
	 viewBox="0 0 1265.4 997.3" style="enable-background:new 0 0 1265.4 997.3;" xml:space="preserve">
<style type="text/css">
	.st0{fill:none;stroke:#000000;stroke-width:12;stroke-linejoin:round;stroke-miterlimit:10;}
</style>
<g id="Layer_3">
</g>
<g id="Layer_2_00000109750495668712462450000015545818067845325190_">
	
		<image style="display:none;overflow:visible;enable-background:new    ;" width="961" height="1280" xlink:href="84E2CF3E.png"  transform="matrix(1.499 0 0 1.499 -108.1785 -399.3753)">
	</image>
	<path class="st0" d="M325,639.5l-126.5,0.2c-12.6,0-23.5-7.6-28.3-18.4c-1.7-3.8-2.6-7.9-2.6-12.3l-2.9-582.6
		c0-9.2,7.5-18.7,16.7-18.7l885.5,0.1c10.5,0,19,8.7,18.7,19.2l9.2,583.6c0.1,5.3-1.3,10.2-3.8,14.5c-4.8,8.2-13.7,13.6-23.9,13.6
		L948,638.8L325,639.5z M213.1,849.1v79 M195.1,849.1v79 M176.1,849.1v79 M157.1,849.1v79 M138.1,849.1v79 M120.1,849.1v79
		 M101.1,849.1v79 M82.1,849.1v79 M63.1,849.1v79 M232.1,849.1v79 M250.1,849.1v79 M270.1,849.1v79 M289.1,849.1v79 M307.1,849.1v79
		 M326.1,849.1v79 M345.1,849.1v79 M364.1,849.1v79 M1205.9,669.6H47.4c-4.7,0-9.2,0.8-13.3,2.4c-14.9,5.4-25.5,19.7-25.5,36.4
		v240.4c0,21.4,17.4,38.8,38.8,38.9h1179.9c16.7,0,30.3-13.6,30.3-30.3V721.3c0-23.3-15.4-42.9-36.4-49.4
		C1216.3,670.4,1211.2,669.6,1205.9,669.6z M986.8,571.1c20.6,0,37.3-16.7,37.3-37.3V99.4c0-20.6-16.7-37.3-37.3-37.3h-81.7H266.4
		c-20.6,0-37.3,16.7-37.3,37.3v434.4c0,20.6,16.7,37.3,37.3,37.3h638.7H986.8z M1091,625.1l130.2,46.7 M905.1,62.1v-0.2 M905.1,62.1
		v508.8 M955.5,385.7c0,9.9,8.1,18,18,18s18-8.1,18-18s-8.1-18-18-18S955.5,375.8,955.5,385.7z M955.5,453.7c0,9.9,8.1,18,18,18
		s18-8.1,18-18s-8.1-18-18-18S955.5,443.8,955.5,453.7z M170.7,621.1l-0.5,0.2 M170.2,621.3L34,671.7 M34,671.7L34,671.7 M34,671.7
		l-1.3,0.5 M423.1,715.1c-8.3,0-15,6.7-15,15v207c0,8.3,6.7,15,15,15h762c8.3,0,15-6.7,15-15v-207c0-8.3-6.7-15-15-15 M287.9,536.1
		h582.3c6,0,10.8-4.8,10.8-10.8V108c0-6-4.8-10.8-10.8-10.8H287.9c-6,0-10.8,4.8-10.8,10.8v417.3
		C277.1,531.3,281.9,536.1,287.9,536.1z M77.6,820.6h63v-63h-63V820.6z M939.6,187.6h48v-48h-48V187.6z M423.1,715.1v198.5
		c0,8,6.5,14.5,14.6,14.5l729-1c8.5,0,15.5-6.8,15.6-15.3l2.8-196.7H423.1z M325,639.6l8.7,23.5h598l16.3-24.3l0,0"/>
</g>
</svg>
